{
	"asset":{
		"generator":"Khronos glTF Blender I/O v4.4.56",
		"version":"2.0"
	},
	"scene":0,
	"scenes":[
		{
			"name":"Scene",
			"nodes":[
				0
			]
		}
	],
	"nodes":[
		{
			"mesh":0,
			"name":"Plane",
			"scale":[
				10,
				10,
				10
			]
		}
	],
	"meshes":[
		{
			"name":"Plane",
			"primitives":[
				{
					"attributes":{
						"POSITION":0,
						"NORMAL":1,
						"TEXCOORD_0":2,
						"TANGENT":3
					},
					"indices":4
				}
			]
		}
	],
	"accessors":[
		{
			"bufferView":0,
			"componentType":5126,
			"count":31329,
			"max":[
				1,
				0,
				1
			],
			"min":[
				-1,
				0,
				-1
			],
			"type":"VEC3"
		},
		{
			"bufferView":1,
			"componentType":5126,
			"count":31329,
			"type":"VEC3"
		},
		{
			"bufferView":2,
			"componentType":5126,
			"count":31329,
			"type":"VEC2"
		},
		{
			"bufferView":3,
			"componentType":5126,
			"count":31329,
			"type":"VEC4"
		},
		{
			"bufferView":4,
			"componentType":5123,
			"count":185856,
			"type":"SCALAR"
		}
	],
	"bufferViews":[
		{
			"buffer":0,
			"byteLength":375948,
			"byteOffset":0,
			"target":34962
		},
		{
			"buffer":0,
			"byteLength":375948,
			"byteOffset":375948,
			"target":34962
		},
		{
			"buffer":0,
			"byteLength":250632,
			"byteOffset":751896,
			"target":34962
		},
		{
			"buffer":0,
			"byteLength":501264,
			"byteOffset":1002528,
			"target":34962
		},
		{
			"buffer":0,
			"byteLength":371712,
			"byteOffset":1503792,
			"target":34963
		}
	],
	"buffers":[
		{
			"byteLength":1875504,
			"uri":"2Dplane_mid_res.bin"
		}
	]
}
