{
	"asset":{
		"generator":"Khronos glTF Blender I/O v4.4.56",
		"version":"2.0"
	},
	"scene":0,
	"scenes":[
		{
			"name":"Scene",
			"nodes":[
				0
			]
		}
	],
	"nodes":[
		{
			"mesh":0,
			"name":"Plane",
			"scale":[
				10,
				10,
				10
			]
		}
	],
	"meshes":[
		{
			"name":"Plane",
			"primitives":[
				{
					"attributes":{
						"POSITION":0,
						"NORMAL":1,
						"TEXCOORD_0":2,
						"TANGENT":3
					},
					"indices":4
				}
			]
		}
	],
	"accessors":[
		{
			"bufferView":0,
			"componentType":5126,
			"count":7921,
			"max":[
				1,
				0,
				1
			],
			"min":[
				-1,
				0,
				-1
			],
			"type":"VEC3"
		},
		{
			"bufferView":1,
			"componentType":5126,
			"count":7921,
			"type":"VEC3"
		},
		{
			"bufferView":2,
			"componentType":5126,
			"count":7921,
			"type":"VEC2"
		},
		{
			"bufferView":3,
			"componentType":5126,
			"count":7921,
			"type":"VEC4"
		},
		{
			"bufferView":4,
			"componentType":5123,
			"count":46464,
			"type":"SCALAR"
		}
	],
	"bufferViews":[
		{
			"buffer":0,
			"byteLength":95052,
			"byteOffset":0,
			"target":34962
		},
		{
			"buffer":0,
			"byteLength":95052,
			"byteOffset":95052,
			"target":34962
		},
		{
			"buffer":0,
			"byteLength":63368,
			"byteOffset":190104,
			"target":34962
		},
		{
			"buffer":0,
			"byteLength":126736,
			"byteOffset":253472,
			"target":34962
		},
		{
			"buffer":0,
			"byteLength":92928,
			"byteOffset":380208,
			"target":34963
		}
	],
	"buffers":[
		{
			"byteLength":473136,
			"uri":"2Dplane.bin"
		}
	]
}
