{
	"asset":{
		"generator":"Khronos glTF Blender I/O v4.4.56",
		"version":"2.0"
	},
	"scene":0,
	"scenes":[
		{
			"name":"Scene",
			"nodes":[
				0
			]
		}
	],
	"nodes":[
		{
			"mesh":0,
			"name":"Plane",
			"scale":[
				10,
				10,
				10
			]
		}
	],
	"meshes":[
		{
			"name":"Plane",
			"primitives":[
				{
					"attributes":{
						"POSITION":0,
						"NORMAL":1,
						"TEXCOORD_0":2,
						"TANGENT":3
					},
					"indices":4
				}
			]
		}
	],
	"accessors":[
		{
			"bufferView":0,
			"componentType":5126,
			"count":132496,
			"max":[
				1,
				0,
				1
			],
			"min":[
				-1,
				0,
				-1
			],
			"type":"VEC3"
		},
		{
			"bufferView":1,
			"componentType":5126,
			"count":132496,
			"type":"VEC3"
		},
		{
			"bufferView":2,
			"componentType":5126,
			"count":132496,
			"type":"VEC2"
		},
		{
			"bufferView":3,
			"componentType":5126,
			"count":132496,
			"type":"VEC4"
		},
		{
			"bufferView":4,
			"componentType":5125,
			"count":790614,
			"type":"SCALAR"
		}
	],
	"bufferViews":[
		{
			"buffer":0,
			"byteLength":1589952,
			"byteOffset":0,
			"target":34962
		},
		{
			"buffer":0,
			"byteLength":1589952,
			"byteOffset":1589952,
			"target":34962
		},
		{
			"buffer":0,
			"byteLength":1059968,
			"byteOffset":3179904,
			"target":34962
		},
		{
			"buffer":0,
			"byteLength":2119936,
			"byteOffset":4239872,
			"target":34962
		},
		{
			"buffer":0,
			"byteLength":3162456,
			"byteOffset":6359808,
			"target":34963
		}
	],
	"buffers":[
		{
			"byteLength":9522264,
			"uri":"2Dplane_high_res.bin"
		}
	]
}
